/* XPM */
static char *image[] = {
"50 50 295 2",
"   c None",
"00 c #42862c",
"10 c #478d2d",
"20 c #58a131",
"30 c #3c802a",
"40 c #40862b",
"50 c #468c2e",
"60 c #4e952f",
"70 c #57a031",
"80 c #64ad35",
"90 c #468b2d",
":0 c #4e9430",
";0 c #579e31",
"A0 c #63ad35",
"B0 c #41852b",
"C0 c #579f31",
"D0 c #458b2d",
"E0 c #4c932e",
"F0 c #4d922f",
"G0 c #569d32",
"H0 c #58a031",
"I0 c #a5d189",
"J0 c #e1f0d8",
"K0 c #dae7d4",
"L0 c #9cbc96",
"M0 c #538c49",
"N0 c #367929",
"O0 c #559c30",
"P0 c #487d47",
"Q0 c #195822",
"R0 c #c1dfae",
"S0 c #1d5a26",
"T0 c #8ec46b",
"U0 c #beddaa",
"V0 c #6a9867",
"W0 c #5ea734",
"X0 c #4c922e",
"Y0 c #cadcc7",
"Z0 c #43882d",
"a0 c #e0efd6",
"b0 c #226124",
"c0 c #62ab35",
"d0 c #a1ce83",
"e0 c #a2c09d",
"f0 c #377137",
"g0 c #387b29",
"h0 c #5fa834",
"i0 c #78b94e",
"j0 c #a1cf84",
"k0 c #a7cc94",
"l0 c #5e984c",
"m0 c #77b94d",
"n0 c #145120",
"o0 c #7dbc54",
"p0 c #e8f3e1",
"q0 c #fdfefd",
"r0 c #1f5e23",
"s0 c #67b037",
"t0 c #d8ebcc",
"u0 c #fcfdfb",
"v0 c #316a34",
"w0 c #216124",
"x0 c #d5e3d2",
"y0 c #478d2e",
"z0 c #a3d086",
"01 c #96b790",
"11 c #377238",
"21 c #92bf7d",
"31 c #e1ebde",
"41 c #175323",
"51 c #367829",
"61 c #88c162",
"71 c #dee9dc",
"81 c #dae9d4",
"91 c #1a5623",
":1 c #347529",
";1 c #71b644",
"A1 c #f7fbf4",
"B1 c #519831",
"C1 c #8fc56c",
"D1 c #62ad35",
"E1 c #69b13a",
"F1 c #5ca335",
"G1 c #62ab34",
"H1 c #2a662f",
"I1 c #296a25",
"J1 c #9bcc7c",
"K1 c #26622d",
"L1 c #266524",
"M1 c #d4e9c7",
"N1 c #b5cdb2",
"O1 c #4a8f2e",
"P1 c #67b138",
"Q1 c #f9fcf7",
"R1 c #c5e1b3",
"S1 c #0e4a1f",
"T1 c #3b7e2a",
"U1 c #add594",
"V1 c #2e6f27",
"W1 c #b3cbad",
"X1 c #4c9330",
"Y1 c #90c66d",
"Z1 c #4b804a",
"a1 c #65af35",
"b1 c #7cbb53",
"c1 c #7aa476",
"d1 c #5da533",
"e1 c #72b646",
"f1 c #86ac82",
"g1 c #569e32",
"h1 c #8cc468",
"i1 c #679563",
"j1 c #63ad36",
"k1 c #fbfdfa",
"l1 c #9fbe9b",
"m1 c #4f9630",
"n1 c #5c8d59",
"o1 c #0d491f",
"p1 c #f5faf2",
"q1 c #498e2e",
"r1 c #a0ce82",
"s1 c #528650",
"t1 c #114e1f",
"u1 c #eef6e9",
"v1 c #d4e2d1",
"w1 c #42872c",
"x1 c #aad38f",
"y1 c #497f49",
"z1 c #155220",
"02 c #e8f3e0",
"12 c #f1f6f0",
"22 c #b3d89c",
"32 c #417841",
"42 c #185621",
"52 c #e2f0d8",
"62 c #104c1f",
"72 c #357729",
"82 c #afd696",
"92 c #427942",
":2 c #175621",
";2 c #e0efd7",
"A2 c #114e20",
"B2 c #347629",
"C2 c #a3cf86",
"D2 c #4c814b",
"E2 c #135020",
"F2 c #e7f3df",
"G2 c #eff5ee",
"H2 c #3d802b",
"I2 c #95c874",
"J2 c #568a54",
"K2 c #104b1f",
"L2 c #eef6e8",
"M2 c #ccddc8",
"N2 c #458b2e",
"O2 c #8bc169",
"P2 c #82bb5f",
"Q2 c #7bb757",
"R2 c #316b35",
"S2 c #89c264",
"T2 c #61915e",
"U2 c #65b036",
"V2 c #aac5a6",
"W2 c #4e9530",
"X2 c #9ebe9a",
"Y2 c #437944",
"Z2 c #6e9b6b",
"a2 c #fbfdf9",
"b2 c #8cb187",
"c2 c #579f32",
"d2 c #195329",
"e2 c #fdfefc",
"f2 c #9ebd99",
"g2 c #70b543",
"h2 c #709d6d",
"i2 c #daecce",
"j2 c #e5f1dc",
"k2 c #eff7eb",
"l2 c #fefffe",
"m2 c #b0caac",
"n2 c #cfe3c4",
"o2 c #e4ece2",
"p2 c #3f832c",
"q2 c #91c66e",
"r2 c #4e834d",
"s2 c #124f20",
"t2 c #dbe8d9",
"u2 c #2d6831",
"v2 c #67a153",
"w2 c #478c2d",
"x2 c #97c77c",
"y2 c #1d5927",
"z2 c #2c6d26",
"03 c #b2d799",
"13 c #f2f7f2",
"23 c #145021",
"33 c #357728",
"43 c #8baf86",
"53 c #5da634",
"63 c #f8fbf6",
"73 c #88ae84",
"83 c #0e4a1e",
"93 c #5aa132",
":3 c #6bb23c",
";3 c #e5f2dd",
"A3 c #80a97c",
"B3 c #4e834c",
"C3 c #185722",
"D3 c #c2e0af",
"E3 c #5e8e5b",
"F3 c #266427",
"G3 c #66a646",
"H3 c #c8e3b7",
"I3 c #25602b",
"J3 c #266725",
"K3 c #f1f8ed",
"L3 c #225e29",
"M3 c #2e7028",
"N3 c #6cb33e",
"O3 c #dcedd0",
"P3 c #f6f9f6",
"Q3 c #fcfdfc",
"R3 c #afcaac",
"S3 c #4d932f",
"T3 c #f2f8ee",
"U3 c #e8efe6",
"V3 c #0d481e",
"W3 c #44882d",
"X3 c #6fb542",
"Y3 c #e2f0d9",
"Z3 c #b9d0b4",
"a3 c #185423",
"b3 c #40842c",
"c3 c #67b139",
"d3 c #61aa35",
"e3 c #64ae35",
"f3 c #73b747",
"g3 c #c3e0b0",
"h3 c #f4f9f1",
"i3 c #ffffff",
"j3 c #9bbb96",
"k3 c #155221",
"l3 c #4b902e",
"m3 c #69b23a",
"n3 c #91c66f",
"o3 c #c4e0b1",
"p3 c #d6eac9",
"q3 c #aecda0",
"r3 c #74a565",
"s3 c #5b9746",
"t3 c #4d9430",
"u3 c #60a934",
"v3 c #0c481d",
"w3 c #4f952f",
"x3 c #3c7f2b",
"y3 c #0c471e",
"z3 c #63ac35",
"04 c #2f7027",
"14 c #0b471e",
"24 c #41842b",
"34 c #468b2e",
"44 c #4d942f",
"54 c #559d32",
"64 c #62aa35",
"74 c #1c5b22",
"84 c #0b471d",
"94 c #458b2c",
":4 c #4c932f",
";4 c #559d31",
"A4 c #61a935",
"B4 c #5ea634",
"C4 c #0d491e",
"D4 c #458a2d",
"E4 c #4b912e",
"F4 c #549a31",
"G4 c #5ea834",
"H4 c #256525",
"I4 c #0b481e",
"J4 c #45882c",
"K4 c #4a902e",
"L4 c #529931",
"M4 c #5da734",
"N4 c #66b036",
"O4 c #65ae36",
"P4 c #387b2a",
"Q4 c #0c481e",
"R4 c #44892c",
"S4 c #498f2f",
"T4 c #529930",
"U4 c #5ca332",
"V4 c #5aa333",
"W4 c #559e32",
"X4 c #488d2d",
"Y4 c #1b5922",
"Z4 c #0c471d",
"                  Z4Y4X4W4V4U4T4S4R4                                                                ",
"            Q4Q4Q4P4O4N4N4N4N4N4N4N4N4N4M4L4K4J4                                                    ",
"          I4Q4Q4H4N4N4N4N4N4N4N4N4N4N4N4N4N4N4N4N4N4G4F4E4D4                                        ",
"          Q4Q4C4B4N4N4N4N4N4N4N4N4N4N4N4N4N4N4N4N4N4N4N4N4N4N4N4A4;4:494                            ",
"        84Q4Q474N4N4N4N4N4N4N4N4N4N4N4N4N4N4N4N4N4N4N4N4N4N4N4N4N4N4N4N4N4N46454443424              ",
"        14Q4Q404N4N4N4N4N4N4N4N4N4N4N4N4N4N4N4N4N4N4N4N4N4N4N4N4N4N4N4N4N4N4N4N4N4N4N4N4z3K4        ",
"        y3Q4Q4x3N4N4N4N4N4N4N4N4N4N4N4N4N4N4N4N4N4N4N4N4N4N4N4N4N4N4N4N4N4N4N4N4N4N4N4N4N4w3        ",
"        v3Q4Q4x3N4N4N4N4N4N4N4N4N4N4N4N4N4N4N4N4N4N4N4N4N4N4N4N4N4N4N4N4N4N4N4N4N4N4N4N4N4w3        ",
"        v3Q4Q4x3N4N4N4N4N4N4N4N4N4N4N4N4N4N4N4N4N4N4N4N4N4N4N4N4N4N4N4N4N4N4N4N4N4N4N4N4N4w3        ",
"        v3Q4Q4x3N4N4N4N4N4N4N4N4N4u3t3s3r3q3p3o3n3m3N4N4N4N4N4N4N4N4N4N4N4N4N4N4N4N4N4N4N4w3        ",
"        v3Q4Q4x3N4N4N4N4N4N4N4N4l3k3j3i3i3i3i3i3i3h3g3f3N4N4N4N4N4e3d3c3N4N4N4N4N4N4N4N4N4w3        ",
"        v3Q4Q4x3N4N4N4N4N4N4N4b3a3Z3i3i3i3i3i3i3i3i3i3Y3X3N4N4N4N4W3V3U3T3p3N4N4N4N4N4N4N4w3        ",
"        v3Q4Q4x3N4N4N4N4N4N4S3Q4R3i3i3i3i3i3Q3P3i3i3i3i3O3N3N4N4N4M3L3i3i3K3N4N4N4N4N4N4N4w3        ",
"        v3Q4Q4x3N4N4N4N4N4N4J3I3i3i3i3i3i3H3G3F3E3i3i3i3i3D3N4N4N4C3B3i3i3K3N4N4N4N4N4N4N4w3        ",
"        v3Q4Q4x3N4N4N4N4N4V4V3A3i3i3i3i3;3:3N4938373i3i3i363N3N453Q443i3i3K3N4N4N4N4N4N4N4w3        ",
"        v3Q4Q4x3N4N4N4N4N4332313i3i3i3i303N4N4N4z2y2i3i3i3i3x2w2v2u2t2i3i3K3N4N4N4N4N4N4N4w3        ",
"        v3Q4Q4x3N4N4N4N4N4s2r2i3i3i3i3i3q2N4N4N4p2Q4o2i3i3i3n2Q4m2i3i3i3i3l2k2j2i2N4N4N4N4w3        ",
"        v3Q4Q4x3N4N4N4N4u3Q4h2i3i3i3i3i3g2N4N4N4L4Q4f2i3i3i3e2d2m2i3i3i3i3i3i3i3i3N4N4N4N4w3        ",
"        v3Q4Q4x3N4N4N4N4c2Q4b2i3i3i3i3a2N4N4N4N4d3Q4Z2i3i3i3i3Y2X213i3i3i3i3i3i3i3N4N4N4N4w3        ",
"        v3Q4Q4x3N4N4N4N4W2Q4V2i3i3i3i3h3N4N4N4N4U2Q4T2i3i3i3i3S2H4R2i3i3i3T3Q2P2O2N4N4N4N4w3        ",
"        v3Q4Q4x3N4N4N4N4N2Q4M2i3i3i3i3L2N4N4N4N4N4K2J2i3i3i3i3I2H4R2i3i3i3K3N4N4N4N4N4N4N4w3        ",
"        v3Q4Q4x3N4N4N4N4H2Q4G2i3i3i3i3F2N4N4N4N4N4E2D2i3i3i3i3C2H4R2i3i3i3K3N4N4N4N4N4N4N4w3        ",
"        v3Q4Q4x3N4N4N4N4B2A2i3i3i3i3i3;2N4N4N4N4N4:292i3i3i3i382H4R2i3i3i3K3N4N4N4N4N4N4N4w3        ",
"        v3Q4Q4x3N4N4N4N47262i3i3i3i3i352N4N4N4N4N44232i3i3i3i322H4R2i3i3i3K3N4N4N4N4N4N4N4w3        ",
"        v3Q4Q4x3N4N4N4N4x3Q412i3i3i3i302N4N4N4N4N4z1y1i3i3i3i3x1H4R2i3i3i3K3N4N4N4N4N4N4N4w3        ",
"        v3Q4Q4x3N4N4N4N4w1Q4v1i3i3i3i3u1N4N4N4N4N4t1s1i3i3i3i3r1H4R2i3i3i3K3N4N4N4N4N4N4N4w3        ",
"        v3Q4Q4x3N4N4N4N4q1Q4Z3i3i3i3i3p1N4N4N4N4N4o1n1i3i3i3i3I2H4R2i3i3i3K3N4N4N4N4N4N4N4w3        ",
"        v3Q4Q4x3N4N4N4N4m1Q4l1i3i3i3i3k1N4N4N4N4j1Q4i1i3i3i3i3h1H4R2i3i3i3K3N4N4N4N4N4N4N4w3        ",
"        v3Q4Q4x3N4N4N4N4g1Q4f1i3i3i3i3i3e1N4N4N4d1Q4c1i3i3i3i3b1H4R2i3i3i3K3N4N4N4N4N4N4N4w3        ",
"        v3Q4Q4x3N4N4N4N4a1E2Z1i3i3i3i3i3Y1N4N4N4X1Q4W1i3i3i3u1N4H4R2i3i3i3K3N4N4N4N4N4N4N4w3        ",
"        v3Q4Q4x3N4N4N4N4N4V1a3i3i3i3i3i3U1N4N4N4T1S113i3i3i3R1N4H4R2i3i3i3Q1P1N4N4N4N4N4N4w3        ",
"        v3Q4Q4x3N4N4N4N4N4O1Q4N1i3i3i3i3M1N4N4N4L1K1i3i3i3i3J1N4I1H1i3i3i3i3b1G1F1E1N4N4N4w3        ",
"        v3Q4Q4x3N4N4N4N4N4D162E3i3i3i3i3i3C1N4B1o1R3i3i3i3A1;1N4:191i3i3i3i381b27161N4N4N4w3        ",
"        v3Q4Q4x3N4N4N4N4N4N4514131i3i3i3i3k2211101i3i3i3i3z0N4N4y0o1x0i3i3i3i3i3i361N4N4N4w3        ",
"        v3Q4Q4x3N4N4N4N4N4N4e3w0v0u0i3i3i3i3i3i3i3i3i3i3t0s0N4N4U2r092q0i3i3i3i3p0o0N4N4N4w3        ",
"        v3Q4Q4x3N4N4N4N4N4N4N4d1n0n1i3i3i3i3i3i3i3i3i3i2m0N4N4N4N4z3b3l0k0D3j0i0N4N4N4N4N4w3        ",
"        v3Q4Q4x3N4N4N4N4N4N4N4N4h0g0f0e0i3i3i3i3i3h3d0s0N4N4N4N4N4N4N4N4N4N4N4N4N4N4N4N4N4w3        ",
"        v3Q4Q4x3N4N4N4N4N4N4N4N4N4N4c0b0v0i3i3i3i3a0N4N4N4N4N4N4N4N4N4N4N4N4N4N4N4N4N4N4N4w3        ",
"        v3Q4Q4x3N4N4N4N4N4N4N4N4N4N4N4Z0Q4Y0i3i3i3i3S2N4N4N4N4N4N4N4N4N4N4N4N4N4N4N4N4N4N4X0        ",
"        v3Q4Q4x3N4N4N4N4N4N4N4N4N4N4N4W0V3V0i3i3i3i3k2U0T0N4N4N4N4N4N4N4N4N4N4N4N4N4N4N4N494        ",
"        v3Q4Q4x3N4N4N4N4N4N4N4N4N4N4N4N4z2S012i3i3i3i3i3R0N4N4N4N4N4N4N4N4N4N4N4N4N4N4N4N4          ",
"        v3Q4Q4x3N4N4N4N4N4N4N4N4N4N4N4N4c0Q0P0i3i3i3i3i3R0N4N4N4N4N4N4N4N4N4N4N4N4N4N4N4O0          ",
"        v3Q4Q4x3N4N4N4N4N4N4N4N4N4N4N4N4N4u3N0M0L0K0k2J0I0N4N4N4N4N4N4N4N4N4N4N4N4N4N4A4            ",
"        v3Q4Q4x3N4N4N4N4N4N4N4N4N4N4N4N4N4N4N4N4N4N4N4N4N4N4N4N4N4N4N4N4N4N4N4N4N4N4H0              ",
"        v3Q4Q4x3N4N4N4N4N4N4N4N4N4N4N4N4N4N4N4N4N4N4N4N4N4N4N4N4N4N4N4N4N464G0F094                  ",
"        v3Q4Q4x3N4N4N4N4N4N4N4N4N4N4N4N4N4N4N4N4N4N4N4N4N4N4N464G0E0D0                              ",
"        y3Q4Q4x3N4N4N4N4N4N4N4N4N4N4N4N4N4N4N4N4N4z3C04434B0                                        ",
"          84Q4x3N4N4N4N4N4N4N4N4N4N4N4A0;0:090b3                                                    ",
"            I4x3N4N4N4N4N48070605040                                                                ",
"              3020w31000                                                                            "};
